<svg xmlns="http://www.w3.org/2000/svg" viewBox="0 0 26 26">
<path d="M8.7,3C5.5,3,2.9,5.6,2.9,8.8v8.4c0,3.2,2.6,5.8,5.8,5.8h8.5c3.2,0,5.8-2.6,5.8-5.8V8.8c0-3.2-2.6-5.8-5.8-5.8H8.7z M8.7,4.7h8.5c2.3,0,4.1,1.8,4.1,4.1v8.4c0,2.3-1.8,4.1-4.1,4.1H8.7c-2.3,0-4.1-1.8-4.1-4.1V8.8C4.6,6.5,6.5,4.7,8.7,4.7z M18.4,6.4c-0.7,0-1.2,0.5-1.2,1.2c0,0.7,0.5,1.2,1.2,1.2c0.7,0,1.2-0.5,1.2-1.2C19.6,7,19.1,6.4,18.4,6.4z M13,7.9c-2.9,0-5.2,2.3-5.2,5.1c0,2.8,2.3,5.1,5.2,5.1c2.9,0,5.2-2.3,5.2-5.1C18.2,10.2,15.9,7.9,13,7.9z M13,9.6c1.9,0,3.5,1.5,3.5,3.4c0,1.9-1.5,3.4-3.5,3.4c-1.9,0-3.5-1.5-3.5-3.4C9.5,11.1,11.1,9.6,13,9.6z"/>
</svg>
