<svg xmlns="http://www.w3.org/2000/svg" viewBox="0 0 26 26">
<path d="M25.9,5.4c-0.9,0.4-2,0.7-3,0.8c1.1-0.6,1.9-1.6,2.3-2.8c-1,0.6-2.2,1-3.4,1.2c-1-1-2.3-1.6-3.9-1.6c-2.9,0-5.3,2.3-5.3,5c0,0.4,0,0.8,0.1,1.2C8.4,9,4.5,7,1.9,3.9C1.5,4.7,1.2,5.5,1.2,6.5c0,1.8,0.9,3.3,2.4,4.2c-0.9,0-1.7-0.3-2.4-0.6c0,0,0,0,0,0.1c0,2.4,1.8,4.5,4.2,5C5,15.2,4.5,15.2,4,15.2c-0.3,0-0.7,0-1-0.1c0.7,2,2.6,3.5,4.9,3.5c-1.8,1.4-4.1,2.2-6.6,2.2c-0.4,0-0.8,0-1.3-0.1C2.5,22.2,5.2,23,8.2,23c9.7,0,15-7.7,15-14.4c0-0.2,0-0.4,0-0.7C24.3,7.3,25.2,6.4,25.9,5.4"/>
</svg>
