<?xml version="1.0" standalone="no"?>
<!DOCTYPE svg PUBLIC "-//W3C//DTD SVG 20010904//EN"
 "http://www.w3.org/TR/2001/REC-SVG-20010904/DTD/svg10.dtd">
<svg version="1.0" xmlns="http://www.w3.org/2000/svg"
 width="700.000000pt" height="700.000000pt" viewBox="0 0 700.000000 700.000000"
 preserveAspectRatio="xMidYMid meet">
<metadata>
Created by potrace 1.14, written by Peter Selinger 2001-2017
</metadata>
<g transform="translate(0.000000,700.000000) scale(0.100000,-0.100000)"
fill="#000000" stroke="none">
<path d="M3165 6230 c-29 -11 -89 -79 -139 -158 -135 -209 -199 -428 -211
-717 -6 -159 0 -153 15 15 20 215 68 397 148 556 37 74 128 203 144 204 4 0
-5 -28 -18 -61 -70 -171 -126 -436 -184 -869 -23 -168 -44 -312 -47 -320 -4
-11 -8 -8 -13 10 l-8 25 -1 -27 c-1 -16 22 -141 49 -279 28 -139 48 -254 46
-256 -3 -3 -76 22 -163 55 -87 33 -188 67 -226 76 -101 25 -270 46 -378 46
-154 0 -339 -40 -339 -74 0 -6 25 -33 55 -62 61 -58 223 -144 320 -170 132
-36 385 -28 609 17 58 12 111 19 120 16 8 -3 17 -20 21 -37 4 -18 16 -41 27
-52 19 -19 22 -19 30 -4 13 23 101 129 165 199 69 76 102 133 162 287 50 127
124 348 141 424 22 99 32 226 20 262 -8 25 -16 34 -27 30 -8 -3 -18 -6 -23 -6
-9 0 -197 -255 -305 -415 -66 -96 -132 -226 -170 -330 -26 -72 -35 -76 -35
-17 0 37 17 103 60 229 108 321 159 563 184 860 23 268 30 493 17 526 -11 29
-15 30 -46 17z m-35 -575 c-28 -259 -104 -608 -163 -760 -29 -73 -32 -77 -35
-47 -4 42 23 328 49 507 34 241 96 509 141 611 12 26 13 17 16 -91 2 -66 -2
-165 -8 -220z m206 -552 c-19 -43 -80 -184 -136 -313 -56 -129 -124 -291 -152
-360 -27 -69 -52 -127 -55 -130 -3 -3 -2 38 2 90 13 175 72 353 170 518 44 74
190 272 200 272 2 0 -11 -35 -29 -77z m64 -139 c-48 -195 -74 -267 -136 -383
-45 -84 -135 -205 -160 -215 -8 -3 -14 -4 -14 -1 0 11 67 202 102 289 60 152
234 493 246 482 2 -3 -15 -80 -38 -172z m-1005 -530 c88 -17 275 -76 258 -81
-6 -2 -149 17 -319 42 -169 25 -315 46 -324 47 -8 1 10 5 40 9 74 9 247 1 345
-17z m-64 -94 c228 -27 421 -50 429 -51 8 0 -3 -9 -25 -19 -146 -68 -519 -45
-706 44 -49 23 -131 76 -117 76 3 0 192 -22 419 -50z"/>
<path d="M4253 5458 c-21 -18 -40 -33 -42 -35 -7 -5 20 -84 27 -81 4 2 24 12
45 21 34 16 37 21 37 56 0 44 -8 71 -21 71 -4 0 -25 -14 -46 -32z"/>
<path d="M3912 5435 c-32 -23 -82 -100 -82 -128 0 -13 9 -36 21 -51 18 -22 28
-26 74 -26 46 0 59 5 89 31 19 16 38 39 41 49 13 41 -60 140 -104 140 -9 0
-26 -7 -39 -15z"/>
<path d="M2333 5290 c-40 -24 -62 -87 -45 -126 7 -14 27 -31 44 -39 40 -16 74
-2 112 48 37 49 35 92 -6 117 -41 25 -65 25 -105 0z"/>
<path d="M2038 5123 c-34 -40 -29 -85 11 -98 17 -5 101 21 101 32 0 18 -33 61
-55 71 -34 16 -39 15 -57 -5z"/>
<path d="M4095 5097 c-79 -31 -119 -65 -150 -126 -23 -45 -15 -127 17 -190 20
-38 35 -52 89 -79 83 -43 149 -41 207 5 37 30 112 160 112 195 0 29 -55 130
-87 159 -50 46 -125 60 -188 36z m175 -74 c66 -81 61 -162 -18 -243 -36 -37
-57 -49 -89 -55 -55 -9 -107 16 -139 67 -34 54 -40 91 -20 141 30 79 102 126
193 127 36 0 46 -5 73 -37z"/>
<path d="M2386 5017 c-54 -30 -78 -67 -83 -124 -7 -85 54 -161 138 -169 l44
-4 -51 16 c-42 13 -54 22 -68 51 -36 76 17 143 113 143 46 0 57 -4 82 -31 36
-39 37 -77 3 -121 -24 -30 -23 -30 10 4 30 32 36 45 36 82 0 56 -35 101 -92
118 -22 6 -47 22 -55 35 -19 28 -28 28 -77 0z"/>
<path d="M2842 4940 c0 -14 2 -19 5 -12 2 6 2 18 0 25 -3 6 -5 1 -5 -13z"/>
<path d="M3623 4832 c-46 -29 -276 -310 -336 -409 -123 -202 -170 -349 -193
-598 l-7 -80 -33 125 c-18 69 -33 121 -33 115 -2 -21 53 -270 61 -273 4 -2 8
-10 8 -18 0 -26 -65 -16 -127 20 -32 19 -94 47 -138 62 -68 24 -97 28 -190 28
-95 0 -136 -6 -295 -43 -102 -23 -235 -53 -296 -66 -132 -27 -191 -54 -200
-92 -10 -37 4 -53 76 -92 162 -87 323 -122 620 -136 199 -10 375 17 525 79 33
13 63 21 67 18 4 -4 45 -95 91 -202 47 -107 97 -221 112 -254 21 -47 23 -57
10 -52 -56 21 -199 57 -285 72 -76 12 -139 15 -258 12 -187 -6 -312 -31 -551
-113 -232 -79 -243 -84 -276 -110 l-29 -24 20 -28 c24 -32 61 -51 199 -104
188 -71 383 -96 612 -79 234 18 413 61 567 136 39 19 75 34 80 34 12 -1 441
-718 434 -725 -2 -2 -53 16 -113 40 -355 143 -736 168 -1307 85 -166 -24 -205
-32 -222 -49 l-21 -21 65 -61 c194 -183 351 -257 684 -324 394 -78 675 -56
938 76 115 58 115 58 238 -84 203 -234 313 -368 307 -373 -3 -3 -65 13 -139
35 -183 57 -272 71 -457 71 -285 -1 -537 -49 -775 -150 -50 -21 -136 -55 -191
-75 -123 -46 -139 -58 -121 -92 10 -19 44 -37 152 -79 187 -73 218 -80 471
-108 410 -46 553 -44 823 14 215 46 275 68 369 139 l54 40 47 -42 c56 -51 204
-151 355 -242 112 -67 117 -68 187 -49 14 4 33 33 26 39 -11 10 -363 238 -403
261 -63 36 -289 261 -520 519 -99 110 -225 247 -280 305 -115 120 -185 211
-251 325 -152 262 -191 332 -245 439 -53 103 -60 123 -54 155 4 20 11 38 16
41 5 4 5 19 0 37 -8 26 11 85 136 424 79 217 158 437 175 489 32 101 115 309
129 324 18 19 8 -44 -45 -310 -81 -399 -184 -685 -307 -852 -38 -52 -68 -97
-65 -99 10 -10 66 29 107 75 55 61 89 130 172 352 137 368 197 638 197 890 0
115 -7 136 -38 126 -22 -7 -201 -242 -302 -396 -151 -231 -248 -483 -269 -701
-17 -172 -22 -202 -31 -193 -4 5 -45 101 -90 213 -60 152 -80 211 -75 230 4
14 35 55 69 91 203 212 384 637 441 1035 18 123 19 192 2 224 -17 34 -26 34
-74 3z m-38 -159 c-34 -76 -84 -183 -110 -238 -25 -55 -103 -224 -172 -375
-69 -151 -128 -277 -131 -280 -3 -3 -2 38 1 90 15 253 128 496 386 833 45 59
84 107 86 107 2 0 -25 -62 -60 -137z m41 -171 c-56 -220 -113 -383 -182 -519
-56 -111 -144 -239 -200 -294 l-35 -34 31 90 c92 263 244 610 358 822 36 67
68 121 69 119 2 -2 -17 -85 -41 -184z m183 -484 c-32 -81 -208 -548 -298 -788
l-80 -215 0 106 c-2 291 106 570 342 882 28 37 52 67 54 67 1 0 -7 -24 -18
-52z m-1120 -269 c125 -20 269 -80 318 -132 l28 -30 -35 6 c-195 34 -616 62
-825 55 l-140 -5 69 23 c230 78 436 108 585 83z m146 -184 c77 -8 156 -19 175
-23 l35 -8 -41 -16 c-207 -83 -748 -70 -964 23 -54 23 -55 34 -5 42 68 12 664
-2 800 -18z m278 -586 c73 -15 217 -69 217 -81 0 -2 -118 -3 -262 -3 -281 0
-393 -9 -770 -66 -108 -16 -219 -29 -245 -29 l-48 1 59 30 c139 72 431 148
642 168 126 12 294 4 407 -20z m207 -118 c25 -3 45 -11 44 -16 -1 -17 -180
-102 -261 -124 -156 -41 -261 -55 -438 -55 -121 0 -196 5 -258 18 -84 16 -223
60 -240 75 -12 11 577 98 748 110 117 9 315 5 405 -8z m10 -708 c154 -19 289
-53 388 -98 41 -20 73 -37 71 -39 -6 -5 -1330 82 -1336 88 -7 7 58 24 161 42
197 34 470 37 716 7z m-615 -98 c176 -14 426 -34 555 -45 129 -10 330 -26 445
-35 236 -18 257 -25 214 -71 -68 -75 -201 -134 -354 -157 -230 -35 -403 -30
-625 19 -258 58 -550 201 -601 295 -13 24 -28 25 366 -6z m1335 -656 c104 -14
247 -52 360 -96 l95 -37 -40 -9 c-22 -4 -346 -10 -720 -13 l-680 -4 45 21 c80
37 272 97 380 119 191 39 370 45 560 19z m520 -190 c0 -6 -15 -26 -33 -44 -25
-25 -59 -41 -142 -68 -242 -78 -398 -94 -740 -78 -402 20 -468 30 -653 103
-86 35 -100 43 -85 52 11 6 269 13 723 18 388 5 737 12 775 17 108 12 155 12
155 0z"/>
<path d="M3011 4014 c0 -11 3 -14 6 -6 3 7 2 16 -1 19 -3 4 -6 -2 -5 -13z"/>
</g>
</svg>
